<svg xmlns="http://www.w3.org/2000/svg" viewBox="0 0 110 110"><defs><style>.cls-1{fill:#478fcc;}.cls-2{fill:#fff;}</style></defs><title>Asset 7</title><g id="Layer_2" data-name="Layer 2"><g id="_1" data-name=" 1"><rect class="cls-1" width="110" height="110" rx="12.47" ry="12.47"/><g id="brand"><path id="Path_368" data-name="Path 368" class="cls-2" d="M55,85.79A30.8,30.8,0,1,1,85.8,55,30.79,30.79,0,0,1,55,85.79ZM93.67,55v-.07c0-.3-.52-.66-1.1-1a8,8,0,0,0-.82-.52,8,8,0,0,1-3-3h0l-.07-.22A27,27,0,0,0,88,46.72h0v-.08h0v-.22a7.74,7.74,0,0,1,1.7-4,6.36,6.36,0,0,0,.45-.74c.37-.44.74-1.11.66-1.41l-.08-.08V40.1c-.14-.29-.81-.44-1.48-.59a4.48,4.48,0,0,1-.89-.15,7.8,7.8,0,0,1-4-1.63h0l-.15-.15h0V37.5c-.6-1-1.19-1.86-1.86-2.75l-.08-.08h0l-.08-.15v-.07a7.89,7.89,0,0,1,0-4.31l.22-.89c.15-.59.23-1.33,0-1.56l-.07-.07h0a1.2,1.2,0,0,0-.52-.15,6.06,6.06,0,0,0-1,.15,3.78,3.78,0,0,0-.88.22,14.51,14.51,0,0,1-2.46.3,4.57,4.57,0,0,1-1.86-.3h-.07l-.22-.15c-.89-.66-1.86-1.26-2.83-1.86h0v-.07h0l-.22-.07.08-.08a7.42,7.42,0,0,1-1.71-4,3.25,3.25,0,0,0-.15-.88c-.07-.6-.22-1.27-.52-1.42h-.15v-.08h-.14a3,3,0,0,0-1.34.6,7.57,7.57,0,0,1-.74.52,7.64,7.64,0,0,1-4,1.71h-.22A25.32,25.32,0,0,0,60,21.38h-.09l-.15-.07h0a7.74,7.74,0,0,1-3-3.12c-.22-.3-.37-.52-.52-.75-.29-.52-.74-1.1-1-1.1h-.22c-.3,0-.66.52-1,1.1a4.36,4.36,0,0,0-.52.75,7.7,7.7,0,0,1-3,3.12h0l-.22.07a27.39,27.39,0,0,0-3.34.66h-.3a7.77,7.77,0,0,1-4-1.7,6.53,6.53,0,0,0-.74-.52,2.72,2.72,0,0,0-1.26-.59h-.15l-.08.07H40.1c-.3.15-.44.74-.6,1.49a5.2,5.2,0,0,1-.14.88,7.39,7.39,0,0,1-1.63,3.94v.07l-.15.08h0l-.08.07c-1,.59-1.86,1.19-2.75,1.86h-.08v.07h0l-.15.08h-.07a4.74,4.74,0,0,1-1.86.29,8.46,8.46,0,0,1-2.45-.37c-.3-.07-.6-.07-.89-.14a6.06,6.06,0,0,0-1-.15.83.83,0,0,0-.52.15l-.07.07h0c-.22.22-.15.88,0,1.56a3.78,3.78,0,0,0,.22.88,8.51,8.51,0,0,1,0,4.31v.08l-.15.22c-.66.88-1.26,1.78-1.86,2.75l-.07.07h0l-.08.15h-.07a7.32,7.32,0,0,1-4,1.64,4.48,4.48,0,0,1-.89.15c-.59.14-1.26.29-1.41.59v.07l-.07.08a2.68,2.68,0,0,0,.59,1.48,7.71,7.71,0,0,1,.52.75,7.28,7.28,0,0,1,1.71,3.94v.22h0v.07h0A27.42,27.42,0,0,0,21.38,50h0l-.07.23h0a7.72,7.72,0,0,1-3.12,3.06,6.28,6.28,0,0,0-.75.52c-.51.29-1.1.74-1.1,1V55h0c0,.37.52.74,1.1,1.1a6.28,6.28,0,0,0,.75.52,7.7,7.7,0,0,1,3.12,3.05h0l.07.22A27.39,27.39,0,0,0,22,63.27h0v.08h0v.14h0a7.54,7.54,0,0,1-1.7,4,7.57,7.57,0,0,1-.52.74c-.3.52-.67,1.19-.6,1.41l.08.15v.07c.15.3.74.45,1.48.52a6.8,6.8,0,0,0,.89.22,6.88,6.88,0,0,1,3.93,1.64l.08-.08.07.23h.09c.6,1,1.19,1.93,1.86,2.82v.1h.07l.08.15h0a7.86,7.86,0,0,1-.08,4.38,3.84,3.84,0,0,0-.14.89c-.15.59-.22,1.33,0,1.56h.07v.07a.88.88,0,0,0,.52.15,9,9,0,0,0,1-.15l.89-.22a14.27,14.27,0,0,1,2.45-.3,4.94,4.94,0,0,1,1.86.3h.07l.22.15c.89.66,1.79,1.26,2.75,1.86h.08v.07l.15.08h0a7.79,7.79,0,0,1,1.63,4.08,4.48,4.48,0,0,1,.15.89c.15.59.29,1.26.59,1.41h.08l.07.07h.15a2.73,2.73,0,0,0,1.34-.66l.74-.52A7.83,7.83,0,0,1,46.41,88l.07-.08.15.08h.08a27,27,0,0,0,3.34.66h0l.22.07h0a7.76,7.76,0,0,1,3,3.12c.14.22.37.52.52.75.29.52.74,1.1,1,1.1H55c.38,0,.75-.52,1.11-1.1.15-.22.37-.52.52-.75a7.74,7.74,0,0,1,3-3.12h0l.22-.07A27.17,27.17,0,0,0,63.26,88h.29a7.56,7.56,0,0,1,3.94,1.7,2.6,2.6,0,0,1,.74.52,4.15,4.15,0,0,0,1.34.6h.08l.14-.08h.08c.3-.15.44-.82.52-1.48a8.89,8.89,0,0,0,.22-.89,7.17,7.17,0,0,1,1.64-4h-.08l.22-.15h0c1-.59,1.93-1.19,2.83-1.86l.07-.07h0l.15-.08h.11a4.71,4.71,0,0,1,1.86-.29,13.44,13.44,0,0,1,2.45.29l.89.22a6.06,6.06,0,0,0,1,.15,1,1,0,0,0,.52-.15v-.07h.07a2.21,2.21,0,0,0,0-1.56l-.22-.88a7.7,7.7,0,0,1,0-4.31v-.08l.15-.22c.66-.88,1.26-1.86,1.86-2.82h.07l.08-.15h0a7.21,7.21,0,0,1,4.08-1.64,7.88,7.88,0,0,0,.82-.22c.66-.07,1.34-.22,1.49-.52v-.15h.07c.08-.37-.22-.88-.66-1.48-.15-.22-.3-.44-.52-.74A8.19,8.19,0,0,1,88,63.6l-.07-.08.07-.14h0V63.3h0A25.32,25.32,0,0,0,88.63,60h0v-.1l.07-.15h0a7.74,7.74,0,0,1,3.12-3,4.7,4.7,0,0,1,.74-.52c.52-.3,1.11-.74,1.11-1Z"/><path id="Path_369" data-name="Path 369" class="cls-2" d="M69.75,46.71v.08h0v.07a4,4,0,0,1-1.19,3,4.13,4.13,0,0,1-2.75,1.1,1.57,1.57,0,0,1-1.11-.29A2.05,2.05,0,0,1,64.48,49a4.12,4.12,0,0,1,1.11-2.23,3.9,3.9,0,0,1,2.75-1.19h.37V36.91a.52.52,0,0,1,1,0Zm-4.17,5.87a4,4,0,0,1,2.75-1.19,2.06,2.06,0,0,1,1.11.3,2.25,2.25,0,0,1,.29,1.64,4.22,4.22,0,0,1-1.18,2.3,4.14,4.14,0,0,1-2.75,1.11,1.62,1.62,0,0,1-1.11-.3c-.51-.44-.44-2.52.9-3.86Zm4.17,6.54a4.15,4.15,0,0,1-3.94,3.49,1.52,1.52,0,0,1-1.11-.37c-.52-.44-.44-2.52.89-3.86a4.24,4.24,0,0,1,2.75-1.19,1.57,1.57,0,0,1,1.1.37,2.05,2.05,0,0,1,.31,1.56ZM65.07,73.61H62.54V63.73a3,3,0,0,0,1.26-.44,3.76,3.76,0,0,0,1.27.44ZM59.12,61.43a4.26,4.26,0,0,1-1.19-2.31,2,2,0,0,1,.3-1.56,1.57,1.57,0,0,1,1.1-.37,4.36,4.36,0,0,1,2.75,1.19c1.34,1.34,1.41,3.42.89,3.86a1.52,1.52,0,0,1-1.11.37,4.21,4.21,0,0,1-2.74-1.19Zm3.86-5a1.54,1.54,0,0,1-1.1.29,4.09,4.09,0,0,1-2.75-1.1,4.27,4.27,0,0,1-1.19-2.3,2.25,2.25,0,0,1,.3-1.64,2,2,0,0,1,1.1-.3,4.05,4.05,0,0,1,2.75,1.19c1.34,1.33,1.42,3.41.9,3.86Zm-5-19.25a.53.53,0,0,1,.52-.52.52.52,0,0,1,.52.52v8.4h.22a4.23,4.23,0,0,1,2.9,1.19A4.12,4.12,0,0,1,63.2,49,2,2,0,0,1,63,50.65a1.53,1.53,0,0,1-1.11.3,4.13,4.13,0,0,1-2.75-1.1,4,4,0,0,1-1.19-3V46.8h0V37.21Zm5.28,2.6.07-.07V37.2a.52.52,0,0,1,.5-.52h0a.58.58,0,0,1,.6.52v2.53l.07.07A4,4,0,0,1,66,42.92c0,1.94-1.42,3.35-2.16,3.35s-2.08-1.41-2.08-3.35a4,4,0,0,1,1.49-3.12ZM52.06,46.71v.08h0v.07a4,4,0,0,1-1.19,3,4.09,4.09,0,0,1-2.74,1.1A1.56,1.56,0,0,1,47,50.65a2.31,2.31,0,0,1-.3-1.64,4.38,4.38,0,0,1,1.19-2.23,3.9,3.9,0,0,1,2.75-1.19H51V36.91a.52.52,0,1,1,1,0ZM47.9,52.58a4,4,0,0,1,2.75-1.19,1.28,1.28,0,0,1,1.51,1,1.3,1.3,0,0,1-.17,1,4.05,4.05,0,0,1-1.11,2.3,4.1,4.1,0,0,1-2.75,1.1,1.55,1.55,0,0,1-1.1-.29c-.54-.44-.46-2.52.87-3.86ZM52,59.12a4.05,4.05,0,0,1-1.11,2.31,4.28,4.28,0,0,1-2.75,1.18,1.49,1.49,0,0,1-1.1-.37c-.52-.44-.44-2.52.88-3.86a4.24,4.24,0,0,1,2.75-1.19,1.61,1.61,0,0,1,1.11.37A1.8,1.8,0,0,1,52,59.12ZM47.38,73.61H44.85V63.73a3,3,0,0,0,1.27-.44,3.79,3.79,0,0,0,1.26.44Zm-6-12.18a4.57,4.57,0,0,1-1.1-2.31,2,2,0,0,1,.29-1.56,1.39,1.39,0,0,1,1.05-.37,4.44,4.44,0,0,1,2.82,1.19,3.51,3.51,0,0,1,.88,3.86,1.48,1.48,0,0,1-1.1.37,4.46,4.46,0,0,1-2.83-1.19Zm3.94-5a1.55,1.55,0,0,1-1.1.29,4.39,4.39,0,0,1-2.83-1.1,4.57,4.57,0,0,1-1.1-2.3,2.24,2.24,0,0,1,.29-1.64,1.76,1.76,0,0,1,1-.3,4.11,4.11,0,0,1,2.83,1.19,3.54,3.54,0,0,1,.87,3.86Zm-5-19.25a.52.52,0,0,1,1,0v8.4h.22a4.25,4.25,0,0,1,2.9,1.19A4,4,0,0,1,45.51,49a2,2,0,0,1-.22,1.63,1.5,1.5,0,0,1-1.1.3,4.49,4.49,0,0,1-2.83-1.1,4.2,4.2,0,0,1-1.1-3V46.8h0V37.21Zm5.27,2.6.08-.07V37.2a.51.51,0,0,1,.5-.52h0a.58.58,0,0,1,.59.52v2.53l.08.07a3.92,3.92,0,0,1,1.48,3.12c0,1.94-1.41,3.35-2.15,3.35S44,44.86,44,42.92a4,4,0,0,1,1.49-3.12ZM55,26.65A28.35,28.35,0,1,0,83.34,55h0A28.35,28.35,0,0,0,55,26.65Z"/></g></g></g></svg>