<svg xmlns="http://www.w3.org/2000/svg" viewBox="0 0 110 110"><defs><style>.cls-1{fill:#e81f64;}.cls-2{fill:#fff;}</style></defs><title>Asset 5</title><g id="Layer_2" data-name="Layer 2"><g id="_1" data-name=" 1"><rect class="cls-1" width="110" height="110" rx="12.47" ry="12.47"/><path class="cls-2" d="M52,73.9q0,.43,0,.75a2.68,2.68,0,0,1-.12.52.61.61,0,0,1-.2.28.5.5,0,0,1-.27.08H40a2.46,2.46,0,0,1-.58-.06.84.84,0,0,1-.4-.23,1.2,1.2,0,0,1-.22-.52,4.91,4.91,0,0,1-.07-.87,6.75,6.75,0,0,1,.05-.86,2.14,2.14,0,0,1,.17-.65,2.75,2.75,0,0,1,.31-.55,5.64,5.64,0,0,1,.5-.59l3.42-3.67a17,17,0,0,0,1.66-2,11.6,11.6,0,0,0,1-1.61,6.24,6.24,0,0,0,.48-1.34,5.29,5.29,0,0,0,.13-1.16,2.71,2.71,0,0,0-.16-.95,2.18,2.18,0,0,0-.48-.79A2.08,2.08,0,0,0,45,59.2,3,3,0,0,0,43.92,59a4.9,4.9,0,0,0-1.6.23,7.34,7.34,0,0,0-1.22.51,8.57,8.57,0,0,0-.88.52,1.14,1.14,0,0,1-.55.24.32.32,0,0,1-.24-.09.69.69,0,0,1-.16-.31,3,3,0,0,1-.1-.57,7.45,7.45,0,0,1,0-.88c0-.24,0-.43,0-.59a3.66,3.66,0,0,1,.07-.42,1.17,1.17,0,0,1,.12-.3,1.62,1.62,0,0,1,.27-.32,3.78,3.78,0,0,1,.71-.46A8.57,8.57,0,0,1,41.58,56a11.58,11.58,0,0,1,1.65-.45,8.88,8.88,0,0,1,1.88-.19,8.45,8.45,0,0,1,2.7.39,5.27,5.27,0,0,1,1.92,1.09,4.3,4.3,0,0,1,1.14,1.65,5.59,5.59,0,0,1,.38,2.06,9.35,9.35,0,0,1-.19,1.9,7.1,7.1,0,0,1-.76,2,16.08,16.08,0,0,1-1.64,2.39,36.27,36.27,0,0,1-2.8,3l-2.31,2.37h7.81a.44.44,0,0,1,.28.1.72.72,0,0,1,.22.28,1.77,1.77,0,0,1,.14.5A5.47,5.47,0,0,1,52,73.9Z"/><path class="cls-2" d="M71.77,74a4.91,4.91,0,0,1,0,.73,1.49,1.49,0,0,1-.13.47.61.61,0,0,1-.19.26.41.41,0,0,1-.25.07H60.23a.39.39,0,0,1-.23-.07.7.7,0,0,1-.19-.26,1.49,1.49,0,0,1-.13-.47,4.91,4.91,0,0,1,0-.73,7.32,7.32,0,0,1,0-.74,2.08,2.08,0,0,1,.12-.48.85.85,0,0,1,.19-.27.46.46,0,0,1,.25-.08h3.69V59.54L60.73,61.3a2.14,2.14,0,0,1-.57.21.38.38,0,0,1-.35-.09.79.79,0,0,1-.18-.45,7.25,7.25,0,0,1,0-.91c0-.24,0-.44,0-.6a1.57,1.57,0,0,1,.08-.41.73.73,0,0,1,.17-.27,2,2,0,0,1,.29-.23l4.25-2.76a.56.56,0,0,1,.19-.09,1.67,1.67,0,0,1,.3-.07l.48,0h.78c.38,0,.7,0,.94,0a2.06,2.06,0,0,1,.54.08.46.46,0,0,1,.25.14.41.41,0,0,1,.06.23V72.43h3.22a.47.47,0,0,1,.26.08.86.86,0,0,1,.2.27,2.08,2.08,0,0,1,.12.48A7.32,7.32,0,0,1,71.77,74Z"/><path class="cls-2" d="M74.3,30.4v1.25a5.54,5.54,0,0,1-.82,2.91,6.13,6.13,0,0,1-.57.77A5.56,5.56,0,0,1,64.24,35a5.41,5.41,0,0,1-1.11-3.33V29.86H46.88v1.79a5.58,5.58,0,0,1-9.79,3.68,6.13,6.13,0,0,1-.57-.77,5.54,5.54,0,0,1-.82-2.91V30.4a13.56,13.56,0,0,0-9.76,13v31A13.55,13.55,0,0,0,39.48,88h31A13.55,13.55,0,0,0,84.06,74.44v-31A13.56,13.56,0,0,0,74.3,30.4Zm4.64,44a8.43,8.43,0,0,1-8.42,8.42h-31a8.43,8.43,0,0,1-8.42-8.42V49.77H78.94Z"/><path class="cls-2" d="M67,35a3.72,3.72,0,0,0,3.47,0,3.57,3.57,0,0,0,1.15-.92,3.75,3.75,0,0,0,.88-2.41V25.78a3.77,3.77,0,0,0-7.53,0v5.87a3.67,3.67,0,0,0,.75,2.23A3.58,3.58,0,0,0,67,35Z"/><path class="cls-2" d="M39.55,35A3.72,3.72,0,0,0,43,35a3.58,3.58,0,0,0,1.28-1.1,3.67,3.67,0,0,0,.75-2.23V25.78a3.77,3.77,0,0,0-7.53,0v5.87a3.75,3.75,0,0,0,.88,2.41A3.57,3.57,0,0,0,39.55,35Z"/></g></g></svg>