<?xml version="1.0" encoding="UTF-8"?>
<!DOCTYPE svg PUBLIC "-//W3C//DTD SVG 1.1//EN" "http://www.w3.org/Graphics/SVG/1.1/DTD/svg11.dtd">
<!-- Creator: CorelDRAW X7 -->
<svg xmlns="http://www.w3.org/2000/svg" xml:space="preserve" width="3.22351in" height="3.18937in" version="1.1" style="shape-rendering:geometricPrecision; text-rendering:geometricPrecision; image-rendering:optimizeQuality; fill-rule:evenodd; clip-rule:evenodd"
viewBox="0 0 85 84"
 xmlns:xlink="http://www.w3.org/1999/xlink">
 <defs>
  <style type="text/css">
   <![CDATA[
    .fil0 {fill:#727376}
    .fil4 {fill:#373435}
    .fil2 {fill:#299BDA}
    .fil1 {fill:#E20286}
    .fil3 {fill:#F6E100}
   ]]>
  </style>
   <mask id="id0">
  <linearGradient id="id1" gradientUnits="userSpaceOnUse" x1="43.6977" y1="27.3709" x2="77.2999" y2="67.4739">
   <stop offset="0" style="stop-opacity:0; stop-color:white"/>
   <stop offset="1" style="stop-opacity:1; stop-color:white"/>
  </linearGradient>
    <rect style="fill:url(#id1)" width="85.3004" height="84.3989"/>
   </mask>
 </defs>
 <g id="Layer_x0020_1">
  <metadata id="CorelCorpID_0Corel-Layer"/>
  <path class="fil0" style="mask:url(#id0)" d="M61 4l11 -2c3,0 -1,3 -6,5 3,2 5,3 7,5 7,8 12,18 12,30 0,12 -5,22 -12,30 -8,8 -18,12 -30,12 -12,0 -22,-4 -30,-12 -7,-8 -12,-18 -12,-29 -1,-4 -1,-8 -1,-12l0 -2 3 0c2,-6 5,-12 10,-17 8,-7 18,-12 30,-12 6,0 12,1 18,4z"/>
  <path class="fil1" d="M13 26l0 -3 29 -8c0,0 -17,22 -2,40 -17,-11 -9,-34 -9,-34l-18 5z"/>
  <path class="fil2" d="M26 17l2 -5 40 -8c0,0 -40,18 -26,50 -16,-19 5,-42 5,-42l-21 5z"/>
  <path class="fil3" d="M58 67c-12,7 -27,7 -40,-1 -11,-8 -17,-22 -15,-35l25 -6c0,0 -11,31 30,42z"/>
  <path class="fil4" d="M68 11c0,7 1,23 -13,34 3,0 9,0 9,0 0,0 3,0 3,4 1,0 8,-2 5,7l0 0c-1,-2 -3,-2 -5,-1 -2,2 -12,9 -12,9 1,1 4,2 6,3 -13,9 -30,10 -44,0 -6,-4 -10,-9 -13,-15 2,9 8,17 16,23 18,13 43,8 56,-10 12,-18 8,-41 -8,-54z"/>
 </g>
</svg>
