<svg xmlns="http://www.w3.org/2000/svg" viewBox="0 0 110 110"><defs><style>.cls-1{fill:#9e9d9e;}.cls-2{fill:#fff;}</style></defs><title>Asset 6</title><g id="Layer_2" data-name="Layer 2"><g id="_1" data-name=" 1"><rect class="cls-1" width="110" height="110" rx="12.47" ry="12.47"/><g id="dash"><g id="_2164779997264" data-name=" 2164779997264"><path id="Path_366" data-name="Path 366" class="cls-2" d="M69.11,50.64c-.9-.83-18,13.79-18,13.79h0a4.22,4.22,0,0,0,.36,5.9A4.15,4.15,0,0,0,57.39,70l0,0h0S70,51.42,69.11,50.64Z"/><path id="Path_367" data-name="Path 367" class="cls-2" d="M54.43,26.54A38.22,38.22,0,0,0,16.24,64.72,37.46,37.46,0,0,0,20.42,82a2.33,2.33,0,0,0,2.09,1.31H86.29A2.48,2.48,0,0,0,88.43,82a38.22,38.22,0,0,0-34-55.48Zm30.37,52H24a31.86,31.86,0,0,1-2.86-11.46h4.65a2.39,2.39,0,1,0,0-4.77H21.14a33.61,33.61,0,0,1,3.22-12.23l4.05,2.32a2.14,2.14,0,0,0,1.2.36,2.39,2.39,0,0,0,1.19-4.47L26.74,46a33.46,33.46,0,0,1,9-9L38,41.09a2.43,2.43,0,0,0,2.09,1.2,3.12,3.12,0,0,0,1.2-.3,2.41,2.41,0,0,0,.83-3.28l-2.33-4.06A33.81,33.81,0,0,1,52,31.43v4.65a2.39,2.39,0,0,0,4.78,0V31.43A33.7,33.7,0,0,1,69,34.65l-2.33,4.06A2.42,2.42,0,0,0,67.5,42a3.26,3.26,0,0,0,1.19.3,2.36,2.36,0,0,0,2.09-1.2L73.11,37a33.53,33.53,0,0,1,9,8.94L78,48.31a2.39,2.39,0,0,0-.91,3.26,2.42,2.42,0,0,0,2.11,1.22,2.19,2.19,0,0,0,1.19-.36l4.06-2.33a34.09,34.09,0,0,1,3.28,12.23H83a2.39,2.39,0,1,0,0,4.78h4.71A33.29,33.29,0,0,1,84.8,78.57Z"/></g></g></g></g></svg>