<svg xmlns="http://www.w3.org/2000/svg" viewBox="0 0 110 110"><defs><style>.cls-1{fill:#ab9e61;}.cls-2{fill:#fff;}</style></defs><title>Asset 4</title><g id="Layer_2" data-name="Layer 2"><g id="_1" data-name=" 1"><rect class="cls-1" width="110" height="110" rx="12.47" ry="12.47"/><path class="cls-2" d="M29.12,76.59a1.27,1.27,0,0,1-1.27-1.86l9.41-23.8A3.2,3.2,0,0,1,40,49.07H82.72A1.33,1.33,0,0,1,84.06,51L75.78,74.7a3,3,0,0,1-2.66,1.89Z"/><path class="cls-2" d="M26.53,64.17c-.38,1-.69,1-.69-.12V42.45a8.65,8.65,0,0,1,1-3.72L29,35.13a3.92,3.92,0,0,1,3-1.72H49.44a5,5,0,0,1,3.31,1.51L54.6,37a5.06,5.06,0,0,0,3.32,1.5H75a1.27,1.27,0,0,1,1.27,1.86l-.79,2a3.16,3.16,0,0,1-2.72,1.86h-37a3.08,3.08,0,0,0-2.69,1.88Z"/></g></g></svg>