<svg xmlns="http://www.w3.org/2000/svg" viewBox="0 0 110 110"><defs><style>.cls-1{fill:#009789;}.cls-2{fill:#fff;}</style></defs><title>Asset 6</title><g id="Layer_2" data-name="Layer 2"><g id="_1" data-name=" 1"><rect class="cls-1" width="110" height="110" rx="12.47" ry="12.47"/><g id="learning"><path id="Path_424" data-name="Path 424" class="cls-2" d="M93.07,28.39h-48A4.4,4.4,0,0,1,49.47,24H88.69A4.4,4.4,0,0,1,93.07,28.39ZM32.09,40h0v.08a5,5,0,0,0-.66-.1h-.67l-2.21,4.33,1.12.78-1.66,3-.68-4.9-.14-1-.06-.54H25.72l-.07.54-.13,1-.68,4.9-1.66-3,1.11-.78L22.08,40h-.31a6.62,6.62,0,0,0-6.61,6.6v15a2,2,0,0,0,4.07,0v-15a2.51,2.51,0,0,1,1-2V84.14a2.29,2.29,0,0,0,4.57,0V65h3V84.12a2.29,2.29,0,1,0,4.57,0V47.48L34,44.1h1.74l2.6,0H48.59a2,2,0,0,0,2-1.56L68.14,41V40l-19.57.08H38.33Zm0-7.56a5.66,5.66,0,1,0-5.66,5.66A5.66,5.66,0,0,0,32.07,32.46ZM68.14,38.1H70v4.62l-1.72.16L51.77,44.37A3.89,3.89,0,0,1,48.58,46h-.39V60.5H88.46V30.07H48.19v8.1h.38ZM93.07,62.25h-48a4.39,4.39,0,0,0,4.38,4.39H61.14L50.32,86.4h5.21L66.36,66.64h5.43L82.61,86.4h5.23L77,66.64H88.69a4.38,4.38,0,0,0,4.38-4.38Z"/></g></g></g></svg>