<svg xmlns="http://www.w3.org/2000/svg" viewBox="0 0 110 110"><defs><style>.cls-1{fill:#4daf4e;}.cls-2{fill:#fff;}</style></defs><title>Asset 1</title><g id="Layer_2" data-name="Layer 2"><g id="_1" data-name=" 1"><rect class="cls-1" width="110" height="110" rx="12.47" ry="12.47"/><polygon class="cls-2" points="56.24 41.09 79.7 30.86 79.7 25.58 56.24 41.09"/><polygon class="cls-2" points="56.24 38.76 73.59 27.19 73.59 22.16 56.24 38.76"/><polygon class="cls-2" points="23.68 74.72 53.74 87.7 53.76 87.84 53.76 43.08 23.7 30.1 23.68 74.72"/><polygon class="cls-2" points="53.76 41.09 30.29 30.86 30.29 25.58 53.76 41.09"/><polygon class="cls-2" points="53.76 38.76 36.41 27.19 36.41 22.16 53.76 38.76"/><path class="cls-2" d="M86.3,30.1l-30.06,13V87.84l0-.14,30.06-13ZM82.51,70.6,60.79,80.35V77.48l21.72-9.63Zm0-7.82L60.82,72.52V69.66L82.55,60Zm0-7.83L60.85,64.7V61.83L82.58,52.2Z"/></g></g></svg>