<svg xmlns="http://www.w3.org/2000/svg" viewBox="0 0 110 110"><defs><style>.cls-1{fill:#f1592b;}.cls-2{fill:#fff;}</style></defs><title>Asset 2</title><g id="Layer_2" data-name="Layer 2"><g id="_1" data-name=" 1"><rect class="cls-1" width="110" height="110" rx="12.47" ry="12.47"/><path class="cls-2" d="M86.56,67.08c-2.69-1.91-6.81-.9-9.37-4.3,0,0-1-1.08,1.19-3.7s2.33-6.81,1.79-10a6.92,6.92,0,0,0-13.49,0c-.54,3.23-.36,7.41,1.79,10a5.14,5.14,0,0,1,1.4,2.85,11,11,0,0,1,2.93,1.43c4,2.88,3.83,8.43,3.68,10H88.59S89.25,69,86.56,67.08Z"/><path class="cls-2" d="M37.12,63.36a11,11,0,0,1,3-1.46,5.13,5.13,0,0,1,1.4-2.82c2.15-2.63,2.33-6.81,1.79-10a6.92,6.92,0,0,0-13.49,0c-.54,3.23-.36,7.41,1.79,10s1.19,3.7,1.19,3.7c-2.56,3.4-6.68,2.39-9.37,4.3s-2,6.27-2,6.27h12C33.29,71.79,33.07,66.24,37.12,63.36Z"/><path class="cls-2" d="M71.2,65.6a9.23,9.23,0,0,0-3.12-1.33c-2.9-.76-6.18-1-8.47-4,0,0-1.18-1.33,1.48-4.58S64,47.28,63.3,43.3a8.55,8.55,0,0,0-16.68,0c-.67,4-.45,9.15,2.21,12.4s1.48,4.58,1.48,4.58c-2.28,3-5.53,3.23-8.41,4a9.29,9.29,0,0,0-3.18,1.35C35.39,68,36.2,73.35,36.2,73.35H73.71S74.53,68,71.2,65.6Z"/></g></g></svg>