<svg xmlns="http://www.w3.org/2000/svg" viewBox="0 0 42.87 42.87"><defs><style>.cls-1{fill:#fff;}.cls-2{fill:none;}</style></defs><title>Asset 3</title><g id="Layer_2" data-name="Layer 2"><g id="Layer_1-2" data-name="Layer 1"><g id="people"><path id="Path_157" data-name="Path 157" class="cls-1" d="M40.19,28.6c-1.61-1.13-4-.54-5.59-2.56,0,0-.6-.65.71-2.2s1.37-4,1.07-5.94a4,4,0,0,0-4-3.21,3.91,3.91,0,0,0-4,3.21c-.3,1.9-.24,4.4,1.07,5.94a3,3,0,0,1,.83,1.73A6.51,6.51,0,0,1,32,26.4c2.44,1.72,2.26,5,2.2,5.94h7.2C41.38,32.29,41.73,29.73,40.19,28.6Z"/><path id="Path_158" data-name="Path 158" class="cls-1" d="M10.76,26.4a8,8,0,0,1,1.78-.89,2.78,2.78,0,0,1,.83-1.67c1.25-1.54,1.37-4,1.07-5.94a4,4,0,0,0-4-3.21,3.91,3.91,0,0,0-4,3.21c-.3,1.9-.24,4.4,1.07,5.94s.71,2.2.71,2.2c-1.54,2-4,1.43-5.59,2.56s-1.19,3.74-1.19,3.74H8.62C8.5,31.39,8.38,28.06,10.76,26.4Z"/><path id="Path_159" data-name="Path 159" class="cls-1" d="M31,27.71a5.17,5.17,0,0,0-1.84-.78c-1.73-.47-3.69-.59-5.05-2.37,0,0-.72-.78.89-2.74s1.72-5,1.31-7.37a5.07,5.07,0,0,0-9.87,0c-.42,2.37-.24,5.47,1.3,7.37s.9,2.74.9,2.74c-1.37,1.78-3.27,1.9-5,2.38a7.81,7.81,0,0,0-1.9.77c-2,1.43-1.48,4.64-1.48,4.64H32.58C32.52,32.28,33,29.13,31,27.71Z"/></g><rect class="cls-2" width="42.87" height="42.87"/></g></g></svg>