<svg xmlns="http://www.w3.org/2000/svg" viewBox="0 0 110 110"><defs><style>.cls-1{fill:#d42026;}.cls-2{fill:#fff;}</style></defs><title>Asset 4</title><g id="Layer_2" data-name="Layer 2"><g id="_1" data-name=" 1"><rect class="cls-1" width="110" height="110" rx="12.47" ry="12.47"/><path class="cls-2" d="M74.11,28.86H67.35l4.54,6.74h2.47V83.5H35.64V35.6h2.47l4.54-6.74H35.89a6.27,6.27,0,0,0-6.27,6.27V84a6.27,6.27,0,0,0,6.27,6.28H74.11A6.27,6.27,0,0,0,80.38,84V35.13A6.27,6.27,0,0,0,74.11,28.86Z"/><path class="cls-2" d="M67.65,35.6l-4.54-6.74-2.48-3.67-.11.06a5.52,5.52,0,0,0-11,0l-.11-.06-2.48,3.67L42.35,35.6l-1.3,1.93,14,.08,14-.08ZM55,23.34a1.94,1.94,0,1,1-1.94,1.94A1.94,1.94,0,0,1,55,23.34Z"/><rect class="cls-2" x="40.19" y="45.77" width="18.96" height="5.53" rx="2.59" ry="2.59"/><rect class="cls-2" x="40.19" y="56.83" width="30.05" height="5.53" rx="2.59" ry="2.59"/><rect class="cls-2" x="40.19" y="67.9" width="30.05" height="5.53" rx="2.59" ry="2.59"/></g></g></svg>