<svg xmlns="http://www.w3.org/2000/svg" viewBox="0 0 36.04 36.04"><defs><style>.cls-1{fill:#fff;}.cls-2{fill:none;}</style></defs><title>Asset 2</title><g id="Layer_2" data-name="Layer 2"><g id="Layer_1-2" data-name="Layer 1"><g id="reminders"><g id="Group_68" data-name="Group 68"><g id="Group_67" data-name="Group 67"><path id="Path_160" data-name="Path 160" class="cls-1" d="M26.71,4.12H23.63l2,3H26.8V28.84H9.28V7.15h1.13l2-3H9.37A2.84,2.84,0,0,0,6.52,7V29.07a2.84,2.84,0,0,0,2.83,2.85H26.67a2.85,2.85,0,0,0,2.85-2.83V6.93A2.77,2.77,0,0,0,26.8,4.12Z"/><path id="Path_161" data-name="Path 161" class="cls-1" d="M23.82,7.15l-2-3L20.64,2.44l0,.05a2.49,2.49,0,0,0-5,0l0-.05L14.44,4.12l-2,3L11.82,8l6.29.05L24.45,8ZM18.07,1.58a.86.86,0,0,1,0,1.72.85.85,0,0,1-.86-.86h0a.86.86,0,0,1,.85-.86Z"/></g></g><g id="Group_72" data-name="Group 72"><g id="Group_69" data-name="Group 69"><path id="Path_162" data-name="Path 162" class="cls-1" d="M19.92,13.08a1.2,1.2,0,0,1-1.18,1.18H12.49a1.19,1.19,0,0,1-1.17-1.18V12.9a1.19,1.19,0,0,1,1.17-1.17h6.25a1.19,1.19,0,0,1,1.18,1.17Z"/></g><g id="Group_70" data-name="Group 70"><path id="Path_163" data-name="Path 163" class="cls-1" d="M25,18.11a1.22,1.22,0,0,1-1.18,1.18H12.5a1.21,1.21,0,0,1-1.18-1.18v-.18a1.2,1.2,0,0,1,1.18-1.18H23.77A1.21,1.21,0,0,1,25,17.93Z"/></g><g id="Group_71" data-name="Group 71"><path id="Path_164" data-name="Path 164" class="cls-1" d="M25,23.09a1.22,1.22,0,0,1-1.18,1.18H12.5a1.21,1.21,0,0,1-1.18-1.18v-.18a1.2,1.2,0,0,1,1.18-1.18H23.77A1.21,1.21,0,0,1,25,22.91Z"/></g></g></g><rect class="cls-2" width="36.04" height="36.04"/></g></g></svg>