<?xml version="1.0" encoding="UTF-8"?>
<!DOCTYPE svg PUBLIC "-//W3C//DTD SVG 1.1//EN" "http://www.w3.org/Graphics/SVG/1.1/DTD/svg11.dtd">
<!-- Creator: CorelDRAW X7 -->
<svg xmlns="http://www.w3.org/2000/svg" xml:space="preserve" width="1.24074in" height="0.8675in" version="1.1" style="shape-rendering:geometricPrecision; text-rendering:geometricPrecision; image-rendering:optimizeQuality; fill-rule:evenodd; clip-rule:evenodd"
viewBox="0 0 3265 2282"
 xmlns:xlink="http://www.w3.org/1999/xlink">
 <defs>
  <style type="text/css">
   <![CDATA[
    .fil0 {fill:#FEFEFE}
   ]]>
  </style>
 </defs>
 <g id="Layer_x0020_1">
  <metadata id="CorelCorpID_0Corel-Layer"/>
  <path class="fil0" d="M3023 1627c-39,92 -95,176 -167,247 -71,72 -155,128 -247,167 -97,41 -199,62 -304,62 -105,0 -207,-21 -303,-62 -48,-20 -70,-75 -50,-122 20,-48 75,-70 123,-50 145,62 315,62 461,0 70,-30 134,-73 188,-127 55,-54 97,-118 127,-188 31,-73 47,-151 47,-231 0,-80 -16,-158 -47,-231 -30,-70 -72,-133 -127,-188 -54,-54 -118,-97 -188,-127 -73,-31 -151,-46 -231,-46 -52,0 -93,-42 -93,-94 0,-52 41,-94 93,-94 105,0 207,21 304,62 92,39 176,95 247,167 72,71 128,155 167,248 41,96 62,198 62,303 0,105 -21,207 -62,304zm-1270 259c-7,5 -15,-3 -10,-10l409 -532c-1,-7 -2,-14 -2,-21 0,-98 90,-174 192,-151 56,13 101,58 114,115 23,101 -53,191 -151,191 -7,0 -14,-1 -21,-2l-531 410zm658 -1516l0 -158 30 0c58,0 106,-47 106,-106 0,-59 -48,-106 -106,-106l-271 0c-59,0 -107,47 -107,106 0,59 48,106 107,106l29 0 0 158c-92,10 -180,33 -262,67 -223,93 -461,143 -702,143l-300 0c-58,0 -106,48 -106,106 0,59 48,107 106,107 0,0 358,0 398,0 53,0 112,32 112,106 0,74 -65,106 -112,106l-1190 0c-95,0 -143,47 -143,106 0,59 48,106 106,106l991 0c57,1 104,48 104,106 0,59 -48,106 -106,106l-409 0c-58,0 -106,48 -106,106 0,59 48,106 106,106l615 0c58,0 106,48 106,106 0,59 -48,107 -106,107l-294 0c-59,0 -106,47 -106,106 0,58 47,106 106,106l226 0c234,0 468,38 681,133 149,67 319,97 498,78 453,-49 815,-425 850,-880 39,-527 -347,-972 -851,-1027zm-1944 423l131 0c58,0 106,-48 106,-107 0,-58 -48,-106 -106,-106l-131 0c-58,0 -106,48 -106,106 0,59 48,107 106,107zm-197 634c-59,0 -106,48 -106,106 0,59 47,106 106,106 58,0 106,-47 106,-106 0,-58 -48,-106 -106,-106z"/>
 </g>
</svg>
