<svg xmlns="http://www.w3.org/2000/svg" viewBox="0 0 110 110"><defs><style>.cls-1{fill:#66499e;}.cls-2{fill:#fff;}</style></defs><title>Asset 3</title><g id="Layer_2" data-name="Layer 2"><g id="_1" data-name=" 1"><rect class="cls-1" width="110" height="110" rx="12.47" ry="12.47"/><path class="cls-2" d="M77.09,39.26a2.57,2.57,0,0,0-2.5-2h-.16l-15.36.93a2.58,2.58,0,0,0-1.56.66l-.63.58-.67-.62a2.58,2.58,0,0,0-1.72-.66H35.2a2.55,2.55,0,0,0-2.49,2L28.18,60.45a2.57,2.57,0,0,0,2.49,3.12l.33,0,6.07-.77L53.29,75.44,55,77a2.54,2.54,0,0,0,1.74.69,2.63,2.63,0,0,0,.49,0A2.6,2.6,0,0,0,58.75,77L70.38,66.12l5.76-5.25,2,.59a2.51,2.51,0,0,0,.72.11,2.56,2.56,0,0,0,2.5-3.12Zm-34,24.92a1.32,1.32,0,0,0,.28-.25l.57-.71,1.35-1.68a1.28,1.28,0,0,0-.2-1.8l-1.81-1.45a1.28,1.28,0,0,0-1.8.19l-1.12,1.4-.8,1h0a1.21,1.21,0,0,0-.22.42L37.8,60.11l-.71.09L30.67,61,35.2,40.72H54.49l.49.44.21.19-4,5-1.64,2.05a2.76,2.76,0,0,0-.7,1.8,1.74,1.74,0,0,0,.47,1c1.47,1.61,4.82.37,4.82.37l4.17-5a3.65,3.65,0,0,1,1.5-1.07L74.45,58.83l-3.13,2.92a.86.86,0,0,0-.13-.14l-11-10.11a1.28,1.28,0,0,0-1.73,1.88l11,10.11-.81.75-1.8,1.68a0,0,0,0,1,0,0,1.57,1.57,0,0,0-.21-.24l-9.11-8.11a1.28,1.28,0,0,0-1.7,1.91l9.1,8.11.06,0,0,0-2.65,2.47s0,0,0-.08a1.48,1.48,0,0,0-.25-.31l-7.46-6.64A1.28,1.28,0,0,0,52.92,65l7.45,6.64.12.08.1.07-1.21,1.13-.06-.13a1.29,1.29,0,0,0-.36-.48l-1.81-1.45a1.27,1.27,0,0,0-1.8.19L54,72.65l-.06.08-1.09-.84.15-.18,1.27-1.59a1.27,1.27,0,0,0-.19-1.8l-1.81-1.45a1.27,1.27,0,0,0-1.8.19l-1,1.31-.41.52L48,68l.49-.61,1.32-1.64a1.29,1.29,0,0,0-.2-1.8l-1.81-1.45a1.28,1.28,0,0,0-1.8.19l-1.09,1.36-.76,1-.66-.52-.4-.32Z"/><path class="cls-2" d="M30.14,39a1.28,1.28,0,0,0-1-.48H17.59a1.28,1.28,0,0,0-1.28,1.28v26.1a1.28,1.28,0,0,0,1.28,1.28h5.8a1.28,1.28,0,0,0,1.25-1L30.4,40.09A1.26,1.26,0,0,0,30.14,39Z"/><path class="cls-2" d="M92.41,37.47H80.85A1.29,1.29,0,0,0,79.6,39l5.76,26.1a1.27,1.27,0,0,0,1.25,1h5.8a1.28,1.28,0,0,0,1.28-1.28V38.75A1.28,1.28,0,0,0,92.41,37.47Z"/></g></g></svg>