<?xml version="1.0" encoding="UTF-8"?>
<!DOCTYPE svg PUBLIC "-//W3C//DTD SVG 1.1//EN" "http://www.w3.org/Graphics/SVG/1.1/DTD/svg11.dtd">
<!-- Creator: CorelDRAW X7 -->
<svg xmlns="http://www.w3.org/2000/svg" xml:space="preserve" width="1in" height="0.800008in" version="1.1" style="shape-rendering:geometricPrecision; text-rendering:geometricPrecision; image-rendering:optimizeQuality; fill-rule:evenodd; clip-rule:evenodd"
viewBox="0 0 5945 4756"
 xmlns:xlink="http://www.w3.org/1999/xlink">
 <defs>
  <style type="text/css">
   <![CDATA[
    .fil2 {fill:#FEFEFE;fill-rule:nonzero}
    .fil1 {fill:#0098D2;fill-rule:nonzero}
    .fil0 {fill:#283566;fill-rule:nonzero}
   ]]>
  </style>
 </defs>
 <g id="Layer_x0020_1">
  <metadata id="CorelCorpID_0Corel-Layer"/>
  <g id="Bud_x0020_Light">
   <polygon class="fil0" points="5945,4756 0,4756 0,0 5945,0 "/>
   <g>
    <g>
     <path class="fil1" d="M4991 1253c29,0 46,17 46,46l0 2159c0,29 -17,45 -46,45l-4037 0c-29,0 -46,-17 -46,-46l0 -2158c0,-29 17,-46 46,-46l4037 0zm1 -76l0 0 -4039 0c-73,0 -121,48 -121,122l0 2159c0,74 48,121 121,121l4039 0c73,0 121,-47 121,-121l0 -2160c0,-74 -48,-121 -121,-121z"/>
    </g>
    <path class="fil2" d="M4618 2633l0 657 -340 0 0 -657 -205 0 0 -203 750 0 0 203 -205 0zm-1682 -294l0 0c271,0 401,-95 401,-327l0 -546 -318 0 0 579c0,63 -40,88 -86,88 -46,0 -85,-24 -85,-88l0 -579 -326 0 0 546c0,217 127,327 414,327zm1066 951l0 0 0 -860 -328 0 0 315 -178 0 0 -315 -328 0 0 860 328 0 0 -332 178 0 0 332 328 0zm-1287 27l0 0c133,0 254,-24 359,-69l0 -448 -396 0 0 172 102 0 0 145c-10,2 -30,5 -49,5 -129,0 -170,-104 -170,-260 0,-166 68,-236 173,-236 86,0 153,37 203,82l148 -171c-97,-86 -213,-130 -375,-130 -286,0 -485,164 -485,455 0,313 183,455 490,455zm-911 -27l0 0 342 0 0 -860 -342 0 0 860zm-70 0l0 0 0 -214 -276 0 1 -646 -337 0 0 860 612 0zm2128 -964l0 0c225,0 438,-127 438,-438 0,-302 -190,-422 -421,-422l-444 0 0 860 427 0zm-67 -672l0 0c62,0 169,10 169,234 0,229 -94,247 -168,247l-33 0 0 -481 32 0zm-1622 672l0 0c156,0 286,-78 286,-258 0,-110 -72,-177 -148,-206 79,-37 124,-98 124,-179 0,-140 -103,-217 -264,-217l-524 0 0 860 526 0zm-113 -683l0 0c44,0 77,25 77,83 0,69 -32,90 -78,90l-94 0 0 -173 95 0zm10 317l0 0c41,0 81,20 81,92 0,76 -38,94 -81,94l-105 0 0 -186 105 0zm2723 1259l0 0c0,-7 -2,-13 -8,-17 -5,-3 -12,-4 -18,-4l-32 0 0 67 13 0 0 -28 13 0 15 28 15 0 -16 -28c11,-1 18,-6 18,-18zm-45 8l0 0 0 -19 16 0c6,0 16,0 16,9 0,8 -5,10 -13,10l-19 0zm14 -57l0 0c-34,0 -62,27 -62,61 0,34 28,62 62,62 34,0 61,-28 61,-62 0,-34 -27,-61 -61,-61zm0 111l0 0c-28,0 -50,-22 -50,-50 0,-27 22,-50 50,-50 27,0 50,23 50,50 0,28 -23,50 -50,50z"/>
   </g>
  </g>
 </g>
</svg>
