<svg xmlns="http://www.w3.org/2000/svg" viewBox="0 0 37 37"><defs><style>.cls-1{fill:none;}.cls-2{fill:#fff;}</style></defs><title>Asset 2</title><g id="Layer_2" data-name="Layer 2"><g id="Layer_1-2" data-name="Layer 1"><rect class="cls-1" width="37" height="37"/><g id="dash"><g id="_2164779997264" data-name=" 2164779997264"><path id="Path_366" data-name="Path 366" class="cls-2" d="M25.63,16.42c-.43-.41-8.71,6.68-8.71,6.68h0A2.06,2.06,0,0,0,17.1,26,2,2,0,0,0,20,25.8h0S26.07,16.79,25.63,16.42Z"/><path id="Path_367" data-name="Path 367" class="cls-2" d="M18.51,4.73A18.53,18.53,0,0,0,0,23.25a18.12,18.12,0,0,0,2,8.38,1.12,1.12,0,0,0,1,.64H34a1.22,1.22,0,0,0,1-.64A18.55,18.55,0,0,0,18.51,4.73ZM33.24,30H3.76A15.75,15.75,0,0,1,2.37,24.4H4.63a1.16,1.16,0,1,0,0-2.31H2.37a16.29,16.29,0,0,1,1.56-5.93l2,1.13a1.06,1.06,0,0,0,.58.17,1.16,1.16,0,0,0,.58-2.17l-2-1.13A16.29,16.29,0,0,1,9.43,9.82l1.13,2a1.18,1.18,0,0,0,1,.58,1.47,1.47,0,0,0,.58-.15,1.17,1.17,0,0,0,.41-1.59l-1.13-2A16.51,16.51,0,0,1,17.36,7.1V9.36a1.16,1.16,0,1,0,2.31,0V7.1a16.35,16.35,0,0,1,5.9,1.57l-1.12,2a1.16,1.16,0,0,0,.4,1.59,1.47,1.47,0,0,0,.58.15,1.15,1.15,0,0,0,1-.58l1.13-2a16.29,16.29,0,0,1,4.34,4.34l-2,1.13a1.16,1.16,0,0,0,.58,2.17,1,1,0,0,0,.58-.18l2-1.12a16.28,16.28,0,0,1,1.59,5.93H32.37a1.16,1.16,0,1,0,0,2.31h2.29A16.29,16.29,0,0,1,33.24,30Z"/></g></g></g></g></svg>