<svg xmlns="http://www.w3.org/2000/svg" viewBox="0 0 34.02 34.02"><defs><style>.cls-1{fill:none;}.cls-2{fill:#fff;}</style></defs><title>Asset 3</title><g id="Layer_2" data-name="Layer 2"><g id="Layer_1-2" data-name="Layer 1"><rect class="cls-1" width="34.02" height="34.02"/><g id="docs"><g id="Group_120" data-name="Group 120"><path id="Path_239" data-name="Path 239" class="cls-2" d="M1.93,29.59a.76.76,0,0,1-.85-.66.71.71,0,0,1,.09-.45l5.49-13.9a1.87,1.87,0,0,1,1.57-1.11H33.17a.76.76,0,0,1,.84.66.77.77,0,0,1-.08.45L29.08,28.42a1.88,1.88,0,0,1-1.58,1.11H1.93Z"/></g><g id="Group_121" data-name="Group 121"><path id="Path_240" data-name="Path 240" class="cls-2" d="M.41,22.35c-.24.58-.41.58-.41-.06V9.68A5.38,5.38,0,0,1,.58,7.52l1.23-2.1a2.39,2.39,0,0,1,1.75-1H13.72a3,3,0,0,1,1.93.88l1,1.22a3,3,0,0,0,1.93.88h10.1a.75.75,0,0,1,.84.66.79.79,0,0,1-.08.45L29,9.67a1.86,1.86,0,0,1-1.58,1.11H5.84a1.78,1.78,0,0,0-1.58,1.11Z"/></g></g></g></g></svg>