<svg xmlns="http://www.w3.org/2000/svg" viewBox="0 0 38.01 38.01"><defs><style>.cls-1{fill:none;}.cls-2{fill:#fff;}</style></defs><title>Asset 4</title><g id="Layer_2" data-name="Layer 2"><g id="Layer_1-2" data-name="Layer 1"><rect class="cls-1" width="38.01" height="38.01"/><g id="docs"><g id="Group_120" data-name="Group 120"><path id="Path_239" data-name="Path 239" class="cls-2" d="M3.92,31.58a.75.75,0,0,1-.84-.66.74.74,0,0,1,.08-.44l5.49-13.9a1.86,1.86,0,0,1,1.58-1.11H35.16a.76.76,0,0,1,.85.66.72.72,0,0,1-.09.45L31.08,30.42a1.88,1.88,0,0,1-1.58,1.11H3.92Z"/></g><g id="Group_121" data-name="Group 121"><path id="Path_240" data-name="Path 240" class="cls-2" d="M2.41,24.34c-.24.59-.41.59-.41-.05V11.67a5.43,5.43,0,0,1,.58-2.16l1.23-2.1a2.36,2.36,0,0,1,1.75-1H15.72a3,3,0,0,1,1.93.87L18.7,8.52a2.9,2.9,0,0,0,1.92.87h10.1a.75.75,0,0,1,.76,1.11L31,11.67a1.88,1.88,0,0,1-1.58,1.11H7.84a1.76,1.76,0,0,0-1.58,1.11Z"/></g></g></g></g></svg>