<svg xmlns="http://www.w3.org/2000/svg" viewBox="0 0 30 24.03"><defs><style>.cls-1{fill:#fff;}</style></defs><title>Asset 1</title><g id="Layer_2" data-name="Layer 2"><g id="Layer_1-2" data-name="Layer 1"><g id="learning"><path id="Path_424" data-name="Path 424" class="cls-1" d="M30,1.69H11.52A1.69,1.69,0,0,1,13.21,0h15.1A1.69,1.69,0,0,1,30,1.69ZM6.52,6.17h0v0l-.25,0H6L5.15,7.83l.43.3L4.94,9.27,4.68,7.38l0-.36,0-.21H4.07L4,7l0,.36L3.73,9.27,3.09,8.12l.43-.3L2.66,6.16H2.55A2.55,2.55,0,0,0,0,8.7v5.77a.78.78,0,0,0,.78.78.79.79,0,0,0,.79-.78V8.7A1,1,0,0,1,2,7.92V23.16a.87.87,0,0,0,.91.85.89.89,0,0,0,.85-.85V15.79H4.86v7.36a.89.89,0,0,0,1.77,0V9l.63-1.3h5.61a.79.79,0,0,0,.76-.6l6.77-.6V6.16l-7.53,0H8.92Zm0-2.91A2.18,2.18,0,1,0,4.33,5.44,2.18,2.18,0,0,0,6.51,3.26ZM20.4,5.43h.73V7.21l-.66.06-6.37.58a1.49,1.49,0,0,1-1.23.63h-.15v5.58H28.23V2.34H12.72V5.46h.14Zm9.6,9.3H11.52a1.69,1.69,0,0,0,1.69,1.69H17.7L13.54,24h2l4.17-7.61h2.09L26,24h2l-4.17-7.61h4.5A1.68,1.68,0,0,0,30,14.73Z"/></g></g></g></svg>