<svg xmlns="http://www.w3.org/2000/svg" viewBox="0 0 40 21.82"><defs><style>.cls-1{fill:#fff;}</style></defs><title>Asset 1</title><g id="Layer_2" data-name="Layer 2"><g id="Layer_1-2" data-name="Layer 1"><g id="people"><path id="Path_157" data-name="Path 157" class="cls-1" d="M38.75,18.07c-1.6-1.13-4-.53-5.59-2.55,0,0-.59-.66.72-2.2S35.24,9.27,35,7.37a4,4,0,0,0-4-3.21,3.92,3.92,0,0,0-4,3.21c-.3,1.9-.24,4.4,1.07,6A2.88,2.88,0,0,1,28.88,15a6.51,6.51,0,0,1,1.72.83c2.44,1.73,2.26,5,2.2,6H40C39.94,21.76,40.3,19.2,38.75,18.07Z"/><path id="Path_158" data-name="Path 158" class="cls-1" d="M9.32,15.87A9.05,9.05,0,0,1,11.11,15a2.73,2.73,0,0,1,.83-1.66c1.25-1.55,1.37-4.05,1.07-5.95A4,4,0,0,0,9,4.16,3.93,3.93,0,0,0,5,7.37c-.3,1.9-.24,4.4,1.07,6s.72,2.2.72,2.2c-1.55,2-4,1.42-5.59,2.55S.05,21.82.05,21.82H7.18C7.06,20.87,6.94,17.54,9.32,15.87Z"/><path id="Path_159" data-name="Path 159" class="cls-1" d="M29.6,17.18a5,5,0,0,0-1.85-.77c-1.72-.48-3.68-.6-5.05-2.38,0,0-.71-.77.89-2.73s1.73-5,1.31-7.38a5.07,5.07,0,0,0-9.87,0c-.42,2.38-.24,5.47,1.31,7.38s.89,2.73.89,2.73c-1.37,1.79-3.27,1.9-5,2.38a7.18,7.18,0,0,0-1.9.78c-2,1.42-1.49,4.63-1.49,4.63H31.14C31.08,21.76,31.56,18.61,29.6,17.18Z"/></g></g></g></svg>