<svg xmlns="http://www.w3.org/2000/svg" viewBox="0 0 23 31.91"><defs><style>.cls-1{fill:#fff;}</style></defs><title>Asset 1</title><g id="Layer_2" data-name="Layer 2"><g id="Layer_1-2" data-name="Layer 1"><g id="reminders"><g id="Group_68" data-name="Group 68"><g id="Group_67" data-name="Group 67"><path id="Path_160" data-name="Path 160" class="cls-1" d="M20.19,4.11H17.11l2,3h1.13V28.83H2.76V7.15H3.89l2-3H2.85A2.84,2.84,0,0,0,0,6.94V29.06a2.84,2.84,0,0,0,2.83,2.85H20.15A2.84,2.84,0,0,0,23,29.08V6.92a2.77,2.77,0,0,0-2.72-2.81Z"/><path id="Path_161" data-name="Path 161" class="cls-1" d="M17.3,7.15l-2-3L14.12,2.44l0,0a2.49,2.49,0,0,0-5,0l0,0L7.92,4.11l-2,3L5.3,8l6.29,0,6.34,0ZM11.55,1.58a.86.86,0,1,1-.86.86h0a.85.85,0,0,1,.85-.86Z"/></g></g><g id="Group_72" data-name="Group 72"><g id="Group_69" data-name="Group 69"><path id="Path_162" data-name="Path 162" class="cls-1" d="M13.4,13.08a1.19,1.19,0,0,1-1.18,1.17H6A1.19,1.19,0,0,1,4.8,13.08V12.9A1.19,1.19,0,0,1,6,11.72h6.25A1.2,1.2,0,0,1,13.4,12.9Z"/></g><g id="Group_70" data-name="Group 70"><path id="Path_163" data-name="Path 163" class="cls-1" d="M18.43,18.1a1.21,1.21,0,0,1-1.18,1.18H6A1.2,1.2,0,0,1,4.8,18.1v-.18A1.21,1.21,0,0,1,6,16.74H17.25a1.22,1.22,0,0,1,1.18,1.18Z"/></g><g id="Group_71" data-name="Group 71"><path id="Path_164" data-name="Path 164" class="cls-1" d="M18.43,23.08a1.21,1.21,0,0,1-1.18,1.18H6A1.2,1.2,0,0,1,4.8,23.08V22.9A1.21,1.21,0,0,1,6,21.72H17.25a1.22,1.22,0,0,1,1.18,1.18Z"/></g></g></g></g></g></svg>