<svg xmlns="http://www.w3.org/2000/svg" viewBox="0 0 40.01 20.87"><defs><style>.cls-1{fill:#fff;}</style></defs><title>Asset 2</title><g id="Layer_2" data-name="Layer 2"><g id="Layer_1-2" data-name="Layer 1"><g id="partner"><path id="Path_189" data-name="Path 189" class="cls-1" d="M31.47,1a1.33,1.33,0,0,0-1.29-1h-.1l-8,.47a1.31,1.31,0,0,0-.83.36L21,1.14,20.62.83a1.36,1.36,0,0,0-.88-.36h-10a1.3,1.3,0,0,0-1.29,1L6.15,12a1.27,1.27,0,0,0,.31,1.19,1.45,1.45,0,0,0,1,.41H7.6l3.15-.41,8.37,6.56.93.77a1.17,1.17,0,0,0,.88.36h.26a1.1,1.1,0,0,0,.77-.36l6-5.63,3-2.74,1,.31a.9.9,0,0,0,.36.05,1.13,1.13,0,0,0,.88-.36,1.21,1.21,0,0,0,.36-1.24ZM13.9,13.9c0-.05.1-.05.16-.1l.31-.36.67-.88a.65.65,0,0,0-.09-.92h0L14,10.86a.65.65,0,0,0-.92.08h0l-.57.73-.41.51h0a.35.35,0,0,0-.1.21l-.78-.62-.36.05-3.31.42L9.88,1.76h10l.26.21.1.09L18.14,4.65l-.82,1a1.35,1.35,0,0,0-.37.93.86.86,0,0,0,.26.52c.78.83,2.48.21,2.48.21l2.17-2.59a1.93,1.93,0,0,1,.78-.57l7.54,6.88-1.6,1.5,0-.06L22.84,7.29a.64.64,0,0,0-.92.08.65.65,0,0,0,0,.9l5.68,5.22-.41.41-.93.88h0c0-.06,0-.1-.1-.1l-4.7-4.19a.66.66,0,0,0-.93,0,.64.64,0,0,0,0,.93l0,0,4.7,4.19h.05L24,17V16.9c-.05,0-.05-.1-.1-.16l-3.88-3.41a.66.66,0,0,0-.88,1l3.88,3.41.05.05a0,0,0,0,1,.05,0h0l-.62.57a0,0,0,0,0-.05,0h0a.75.75,0,0,0-.21-.26l-.93-.78a.65.65,0,0,0-.92.1h0l-.67.83-.05.05-.57-.41.06-.1.67-.83a.65.65,0,0,0-.09-.92h0l-.93-.77a.65.65,0,0,0-.92.09h0l-.57.67-.21.26-.67-.42.26-.31.67-.82a.65.65,0,0,0-.09-.92h0L16.35,13a.67.67,0,0,0-.93.1h0l-.57.73-.41.46-.36-.26-.16-.15Z"/><path id="Path_190" data-name="Path 190" class="cls-1" d="M7.18.88A.62.62,0,0,0,6.67.62h-6A.68.68,0,0,0,0,1.29V14.78a.68.68,0,0,0,.67.67h3a.61.61,0,0,0,.62-.52l3-13.48A.46.46,0,0,0,7.18.88Z"/><path id="Path_191" data-name="Path 191" class="cls-1" d="M39.38.1h-6a.68.68,0,0,0-.52.26,1.13,1.13,0,0,0-.15.57l3,13.48a.61.61,0,0,0,.62.52h3a.67.67,0,0,0,.67-.67V.78a.59.59,0,0,0-.49-.67Z"/></g></g></g></svg>